<svg width="31" height="30" viewBox="0 0 31 30" fill="none" xmlns="http://www.w3.org/2000/svg">
<g filter="url(#filter0_ii)">
<path fill-rule="evenodd" clip-rule="evenodd" d="M15.5 0C6.93625 0 0 6.7125 0 15C0 21.6375 4.43687 27.2438 10.5981 29.2313C11.3731 29.3625 11.6637 28.9125 11.6637 28.5188C11.6637 28.1625 11.6444 26.9812 11.6444 25.725C7.75 26.4187 6.7425 24.8063 6.4325 23.9625C6.25812 23.5313 5.5025 22.2 4.84375 21.8438C4.30125 21.5625 3.52625 20.8688 4.82437 20.85C6.045 20.8313 6.91687 21.9375 7.2075 22.3875C8.6025 24.6562 10.8306 24.0187 11.7219 23.625C11.8575 22.65 12.2644 21.9938 12.71 21.6188C9.26125 21.2438 5.6575 19.95 5.6575 14.2125C5.6575 12.5812 6.25812 11.2313 7.24625 10.1813C7.09125 9.80625 6.54875 8.26875 7.40125 6.20625C7.40125 6.20625 8.69937 5.8125 11.6637 7.74375C12.9037 7.40625 14.2212 7.2375 15.5387 7.2375C16.8562 7.2375 18.1737 7.40625 19.4137 7.74375C22.3781 5.79375 23.6762 6.20625 23.6762 6.20625C24.5287 8.26875 23.9863 9.80625 23.8313 10.1813C24.8194 11.2313 25.42 12.5625 25.42 14.2125C25.42 19.9687 21.7969 21.2438 18.3481 21.6188C18.91 22.0875 19.3944 22.9875 19.3944 24.3937C19.3944 26.4 19.375 28.0125 19.375 28.5188C19.375 28.9125 19.6656 29.3813 20.4406 29.2313C23.5176 28.2259 26.1914 26.3121 28.0856 23.7592C29.9798 21.2063 30.9991 18.1429 31 15C31 6.7125 24.0637 0 15.5 0Z" fill="url(#paint0_linear)"/>
</g>
<defs>
<filter id="filter0_ii" x="-0.0157363" y="-0.901529" width="31.0315" height="31.0631" filterUnits="userSpaceOnUse" color-interpolation-filters="sRGB">
<feFlood flood-opacity="0" result="BackgroundImageFix"/>
<feBlend mode="normal" in="SourceGraphic" in2="BackgroundImageFix" result="shape"/>
<feColorMatrix in="SourceAlpha" type="matrix" values="0 0 0 0 0 0 0 0 0 0 0 0 0 0 0 0 0 0 127 0" result="hardAlpha"/>
<feOffset dx="-0.0157363" dy="0.901529"/>
<feGaussianBlur stdDeviation="0.450833"/>
<feComposite in2="hardAlpha" operator="arithmetic" k2="-1" k3="1"/>
<feColorMatrix type="matrix" values="0 0 0 0 0 0 0 0 0 0 0 0 0 0 0 0 0 0 0.5 0"/>
<feBlend mode="normal" in2="shape" result="effect1_innerShadow"/>
<feColorMatrix in="SourceAlpha" type="matrix" values="0 0 0 0 0 0 0 0 0 0 0 0 0 0 0 0 0 0 127 0" result="hardAlpha"/>
<feOffset dx="0.0157363" dy="-0.901529"/>
<feGaussianBlur stdDeviation="0.450833"/>
<feComposite in2="hardAlpha" operator="arithmetic" k2="-1" k3="1"/>
<feColorMatrix type="matrix" values="0 0 0 0 0 0 0 0 0 0 0 0 0 0 0 0 0 0 0.5 0"/>
<feBlend mode="normal" in2="effect1_innerShadow" result="effect2_innerShadow"/>
</filter>
<linearGradient id="paint0_linear" x1="14.9567" y1="29.5063" x2="15.4387" y2="0.2499" gradientUnits="userSpaceOnUse">
<stop/>
<stop offset="1" stop-color="#343434"/>
</linearGradient>
</defs>
</svg>
