<svg width="69" height="69" viewBox="0 0 69 69" fill="none" xmlns="http://www.w3.org/2000/svg">
<circle cx="34.5" cy="34.5" r="33.75" fill="white" stroke="#2C2C2C" stroke-width="0.5"/>
<g filter="url(#filter0_i_135:58)">
<circle cx="34.5001" cy="34.5" r="22.3333" fill="url(#paint0_linear_135:58)" fill-opacity="0.9"/>
</g>
<g filter="url(#filter1_i_135:58)">
<circle cx="34.5001" cy="34.5001" r="23.4741" stroke="black" stroke-opacity="0.35" stroke-width="0.2"/>
</g>
<g filter="url(#filter2_i_135:58)">
<circle cx="34.5" cy="34.5" r="32.0593" stroke="black" stroke-opacity="0.51" stroke-width="0.4" stroke-dasharray="0.8 0.8"/>
</g>
<path d="M28.2963 16.076L23.9537 30.5514H28.2963L19.6111 48.1931L23.9537 33.4464H19.6111L28.2963 16.076Z" fill="white"/>
<path d="M34.4999 15.8889L30.1573 30.3642H34.4999L25.8147 48.006L30.1573 33.2593H25.8147L34.4999 15.8889Z" fill="white"/>
<path d="M43.1852 21.0391L38.8426 35.5144H43.1852L34.5 53.1562L38.8426 38.4094H34.5L43.1852 21.0391Z" fill="white"/>
<path d="M49.389 20.8519L45.0464 35.3272H49.389L40.7039 52.969L45.0464 38.2223H40.7039L49.389 20.8519Z" fill="white"/>
<path d="M15.4167 11.4073L16.2945 13.7796L18.6667 14.6573L16.2945 15.5351L15.4167 17.9073L14.539 15.5351L12.1667 14.6573L14.539 13.7796L15.4167 11.4073Z" fill="#2C2C2C"/>
<path d="M55.3611 13.4073L56.2389 15.7796L58.6111 16.6573L56.2389 17.5351L55.3611 19.9073L54.4833 17.5351L52.1111 16.6573L54.4833 15.7796L55.3611 13.4073Z" fill="#2C2C2C"/>
<path d="M55.3611 49.6296L56.2389 52.0018L58.6111 52.8796L56.2389 53.7574L55.3611 56.1296L54.4833 53.7574L52.1111 52.8796L54.4833 52.0018L55.3611 49.6296Z" fill="#2C2C2C"/>
<path d="M15.4167 51.6296L16.2945 54.0018L18.6667 54.8796L16.2945 55.7574L15.4167 58.1296L14.539 55.7574L12.1667 54.8796L14.539 54.0018L15.4167 51.6296Z" fill="#2C2C2C"/>
<path d="M8.59759 37.3576C8.35989 37.3578 8.12505 37.3058 7.90969 37.2051C7.69434 37.1045 7.50373 36.9578 7.35137 36.7753C7.55835 37.2449 7.80405 37.6964 8.08591 38.1252C8.19317 38.2878 8.07663 38.5186 7.88254 38.5186H6.06243C5.86788 38.5186 5.75134 38.2878 5.85906 38.1252C6.14093 37.6964 6.38663 37.2449 6.59361 36.7753C6.41635 36.9872 6.18802 37.1503 5.93018 37.2494C5.67234 37.3485 5.3935 37.3803 5.11999 37.3416C4.84648 37.303 4.58734 37.1953 4.36702 37.0286C4.14671 36.862 3.9725 36.6419 3.86085 36.3893C3.7492 36.1366 3.70378 35.8596 3.7289 35.5845C3.75402 35.3094 3.84884 35.0452 4.0044 34.8169C4.15996 34.5887 4.37114 34.4038 4.61798 34.2798C4.86483 34.1559 5.1392 34.0969 5.41518 34.1084C5.34283 33.8658 5.32815 33.6097 5.3723 33.3604C5.41644 33.1111 5.5182 32.8756 5.66946 32.6726C5.82072 32.4696 6.01729 32.3048 6.24352 32.1912C6.46975 32.0777 6.71937 32.0186 6.97249 32.0186C7.22561 32.0186 7.47523 32.0777 7.70146 32.1912C7.92768 32.3048 8.12426 32.4696 8.27552 32.6726C8.42677 32.8756 8.52853 33.1111 8.57268 33.3604C8.61683 33.6097 8.60214 33.8658 8.5298 34.1084C8.74583 34.0994 8.96148 34.1337 9.16411 34.2092C9.36674 34.2846 9.55228 34.3997 9.70986 34.5478C9.86744 34.6959 9.99388 34.8739 10.0818 35.0715C10.1697 35.2691 10.2173 35.4822 10.2218 35.6984C10.2263 35.9146 10.1877 36.1295 10.1081 36.3306C10.0285 36.5317 9.90956 36.7148 9.75829 36.8693C9.60703 37.0239 9.42646 37.1466 9.22715 37.2305C9.02784 37.3143 8.81381 37.3576 8.59759 37.3576V37.3576Z" fill="#2C2C2C"/>
<path fill-rule="evenodd" clip-rule="evenodd" d="M62.0079 32.1953C62.2326 31.9596 62.5968 31.9596 62.8216 32.1953L65.3461 34.8424C65.5709 35.078 65.5709 35.4595 65.3461 35.6947L62.8216 38.3418C62.5968 38.5775 62.233 38.5775 62.0086 38.3418L59.4833 35.6951C59.4299 35.6392 59.3875 35.5728 59.3585 35.4996C59.3296 35.4265 59.3147 35.3481 59.3147 35.269C59.3147 35.1898 59.3296 35.1114 59.3585 35.0383C59.3875 34.9652 59.4299 34.8987 59.4833 34.8428L62.0079 32.1953Z" fill="#2C2C2C"/>
<path d="M34.8711 8.57337C34.657 8.79748 34.3693 8.95842 34.0471 9.03433C33.7249 9.11024 33.3839 9.09744 33.0703 8.99768C32.7567 8.89792 32.4857 8.71602 32.2942 8.4767C32.1028 8.23738 32 7.95224 32 7.66C32 7.00852 32.5293 6.58925 33.235 6.03008C33.8506 5.54208 34.6009 4.94753 35.25 4C35.8991 4.94753 36.6494 5.54208 37.265 6.03008C37.9707 6.58925 38.5 7.00852 38.5 7.66C38.5 7.95224 38.3972 8.23738 38.2058 8.4767C38.0143 8.71602 37.7433 8.89792 37.4297 8.99768C37.1161 9.09744 36.7751 9.11024 36.4529 9.03433C36.1307 8.95842 35.843 8.79748 35.6289 8.57337C35.8358 8.9846 36.0815 9.38002 36.3634 9.75555C36.4706 9.89789 36.3541 10.1 36.16 10.1H34.34C34.1455 10.1 34.0289 9.89789 34.1366 9.75555C34.4185 9.38002 34.6642 8.9846 34.8711 8.57337V8.57337Z" fill="#2C2C2C"/>
<path d="M37.9167 62.8715C38.5928 61.9369 38.7531 60.6327 38.0115 59.7786C37.21 58.8556 35.9901 59.123 35.25 59.9754C34.5098 59.1231 33.29 58.8555 32.4885 59.7786C31.7469 60.6327 31.9072 61.9369 32.5833 62.8715C33.3134 63.8808 34.3129 64.748 35.25 65.5C36.1871 64.748 37.1866 63.8808 37.9167 62.8715Z" fill="#2C2C2C"/>
<circle cx="61.0557" cy="25.074" r="0.5" fill="#2C2C2C"/>
<circle cx="60.0557" cy="44.926" r="0.5" fill="#2C2C2C"/>
<circle cx="47.4072" cy="58.574" r="0.5" fill="#2C2C2C"/>
<circle cx="23.5928" cy="59.574" r="0.5" fill="#2C2C2C"/>
<circle cx="9.1853" cy="46.1666" r="0.5" fill="#2C2C2C"/>
<circle cx="8.94434" cy="23.8334" r="0.5" fill="#2C2C2C"/>
<circle cx="23.8333" cy="9.18518" r="0.5" fill="#2C2C2C"/>
<circle cx="47.4072" cy="10.1852" r="0.5" fill="#2C2C2C"/>
<defs>
<filter id="filter0_i_135:58" x="12.1667" y="12.1666" width="44.6667" height="44.6666" filterUnits="userSpaceOnUse" color-interpolation-filters="sRGB">
<feFlood flood-opacity="0" result="BackgroundImageFix"/>
<feBlend mode="normal" in="SourceGraphic" in2="BackgroundImageFix" result="shape"/>
<feColorMatrix in="SourceAlpha" type="matrix" values="0 0 0 0 0 0 0 0 0 0 0 0 0 0 0 0 0 0 127 0" result="hardAlpha"/>
<feOffset/>
<feGaussianBlur stdDeviation="3"/>
<feComposite in2="hardAlpha" operator="arithmetic" k2="-1" k3="1"/>
<feColorMatrix type="matrix" values="0 0 0 0 0 0 0 0 0 0 0 0 0 0 0 0 0 0 0.25 0"/>
<feBlend mode="normal" in2="shape" result="effect1_innerShadow_135:58"/>
</filter>
<filter id="filter1_i_135:58" x="10.926" y="10.926" width="47.1482" height="47.1482" filterUnits="userSpaceOnUse" color-interpolation-filters="sRGB">
<feFlood flood-opacity="0" result="BackgroundImageFix"/>
<feBlend mode="normal" in="SourceGraphic" in2="BackgroundImageFix" result="shape"/>
<feColorMatrix in="SourceAlpha" type="matrix" values="0 0 0 0 0 0 0 0 0 0 0 0 0 0 0 0 0 0 127 0" result="hardAlpha"/>
<feOffset/>
<feGaussianBlur stdDeviation="1.5"/>
<feComposite in2="hardAlpha" operator="arithmetic" k2="-1" k3="1"/>
<feColorMatrix type="matrix" values="0 0 0 0 0 0 0 0 0 0 0 0 0 0 0 0 0 0 0.25 0"/>
<feBlend mode="normal" in2="shape" result="effect1_innerShadow_135:58"/>
</filter>
<filter id="filter2_i_135:58" x="2.24072" y="2.24072" width="64.5186" height="64.5186" filterUnits="userSpaceOnUse" color-interpolation-filters="sRGB">
<feFlood flood-opacity="0" result="BackgroundImageFix"/>
<feBlend mode="normal" in="SourceGraphic" in2="BackgroundImageFix" result="shape"/>
<feColorMatrix in="SourceAlpha" type="matrix" values="0 0 0 0 0 0 0 0 0 0 0 0 0 0 0 0 0 0 127 0" result="hardAlpha"/>
<feOffset/>
<feGaussianBlur stdDeviation="1.5"/>
<feComposite in2="hardAlpha" operator="arithmetic" k2="-1" k3="1"/>
<feColorMatrix type="matrix" values="0 0 0 0 0 0 0 0 0 0 0 0 0 0 0 0 0 0 0.25 0"/>
<feBlend mode="normal" in2="shape" result="effect1_innerShadow_135:58"/>
</filter>
<linearGradient id="paint0_linear_135:58" x1="22.7457" y1="12.1666" x2="53.3071" y2="74.4649" gradientUnits="userSpaceOnUse">
<stop stop-color="#174AFF"/>
<stop offset="1" stop-color="#FF29C3"/>
</linearGradient>
</defs>
</svg>
